<svg viewBox="0 0 1489.733 1698.268" xml:space="preserve" xmlns="http://www.w3.org/2000/svg" enable-background="new 0 0 1489.733 1698.268"><path d="m1489.668 1540.226-50.734-1145.759c-.896-84.585-70.35-153.199-155.591-153.199h-257.892C1004.523 106.268 886.593 0 744.689 0 602.747 0 484.784 106.268 463.85 241.268H206.313c-85.217 0-154.649 68.616-155.543 153.202L.064 1540.188a68.224 68.224 0 0 0-.064 2.933c0 85.543 69.797 155.146 155.592 155.146h1178.556c85.79 0 155.586-69.583 155.586-155.127a65.883 65.883 0 0 0-.066-2.914zM744.689 132.141c68.746 0 126.941 46.126 145.617 109.126H598.998c18.686-62.999 76.91-109.126 145.691-109.126zm589.458 1434.127H155.592c-12.811 0-22.917-9.645-23.43-22.062l50.674-1145.048c.043-.971.064-2.111.064-3.084 0-12.695 10.283-22.806 23.412-22.806H460v241.459c0 36.49 29.51 66.07 66 66.07s66-29.58 66-66.07V373.268h304v241.459c0 36.49 29.51 66.07 66 66.07s66-29.58 66-66.07V373.268h255.343c13.153 0 23.457 10.095 23.457 22.79 0 .974.021 2.023.064 2.998l50.706 1145.117c-.513 12.413-10.617 22.095-23.423 22.095z" fill="#fafafa" class="fill-000000"></path></svg>